<?xml version="1.0" encoding="UTF-8" standalone="no"?>
<svg
   xmlns="http://www.w3.org/2000/svg"
   viewBox="0 0 700 700"
   width="700"
   height="700">
  <g
     transform="translate(59.322034,65.254237)">
    <path
       d="M 572.52,241.4 C 518.29,135.59 410.93,64 288,64 165.07,64 57.68,135.64 3.48,241.41 a 32.35,32.35 0 0 0 0,29.19 C 57.71,376.41 165.07,448 288,448 410.93,448 518.32,376.36 572.52,270.59 a 32.35,32.35 0 0 0 0,-29.19 z M 288,400 A 144,144 0 1 1 432,256 143.93,143.93 0 0 1 288,400 Z m 0,-240 a 95.31,95.31 0 0 0 -25.31,3.79 47.85,47.85 0 0 1 -66.9,66.9 A 95.78,95.78 0 1 0 288,160 Z"
       id="path7389"
       style="fill:#0000ff" />
  </g>
</svg>
