<svg
   xmlns="http://www.w3.org/2000/svg"
   viewBox="0 0 700 700"
   width="700"
   height="700">
  <g
     transform="translate(35.59322,94.915254)">
    <path
       d="m 610.5,341.3 c 2.6,-14.1 2.6,-28.5 0,-42.6 l 25.8,-14.9 c 3,-1.7 4.3,-5.2 3.3,-8.5 -6.7,-21.6 -18.2,-41.2 -33.2,-57.4 -2.3,-2.5 -6,-3.1 -9,-1.4 l -25.8,14.9 c -10.9,-9.3 -23.4,-16.5 -36.9,-21.3 v -29.8 c 0,-3.4 -2.4,-6.4 -5.7,-7.1 -22.3,-5 -45,-4.8 -66.2,0 -3.3,0.7 -5.7,3.7 -5.7,7.1 v 29.8 c -13.5,4.8 -26,12 -36.9,21.3 l -25.8,-14.9 c -2.9,-1.7 -6.7,-1.1 -9,1.4 -15,16.2 -26.5,35.8 -33.2,57.4 -1,3.3 0.4,6.8 3.3,8.5 l 25.8,14.9 c -2.6,14.1 -2.6,28.5 0,42.6 l -25.8,14.9 c -3,1.7 -4.3,5.2 -3.3,8.5 6.7,21.6 18.2,41.1 33.2,57.4 2.3,2.5 6,3.1 9,1.4 l 25.8,-14.9 c 10.9,9.3 23.4,16.5 36.9,21.3 v 29.8 c 0,3.4 2.4,6.4 5.7,7.1 22.3,5 45,4.8 66.2,0 3.3,-0.7 5.7,-3.7 5.7,-7.1 v -29.8 c 13.5,-4.8 26,-12 36.9,-21.3 l 25.8,14.9 c 2.9,1.7 6.7,1.1 9,-1.4 15,-16.2 26.5,-35.8 33.2,-57.4 1,-3.3 -0.4,-6.8 -3.3,-8.5 z M 496,368.5 c -26.8,0 -48.5,-21.8 -48.5,-48.5 0,-26.7 21.8,-48.5 48.5,-48.5 26.7,0 48.5,21.8 48.5,48.5 0,26.7 -21.7,48.5 -48.5,48.5 z M 96,224 c 35.3,0 64,-28.7 64,-64 0,-35.3 -28.7,-64 -64,-64 -35.3,0 -64,28.7 -64,64 0,35.3 28.7,64 64,64 z m 224,32 c 1.9,0 3.7,-0.5 5.6,-0.6 8.3,-21.7 20.5,-42.1 36.3,-59.2 7.4,-8 17.9,-12.6 28.9,-12.6 6.9,0 13.7,1.8 19.6,5.3 l 7.9,4.6 c 0.8,-0.5 1.6,-0.9 2.4,-1.4 7,-14.6 11.2,-30.8 11.2,-48 0,-61.9 -50.1,-112 -112,-112 C 258,32.1 208,82.1 208,144 c 0,61.9 50.1,112 112,112 z m 105.2,194.5 c -2.3,-1.2 -4.6,-2.6 -6.8,-3.9 -8.2,4.8 -15.3,9.8 -27.5,9.8 -10.9,0 -21.4,-4.6 -28.9,-12.6 -18.3,-19.8 -32.3,-43.9 -40.2,-69.6 -10.7,-34.5 24.9,-49.7 25.8,-50.3 -0.1,-2.6 -0.1,-5.2 0,-7.8 l -7.9,-4.6 c -3.8,-2.2 -7,-5 -9.8,-8.1 -3.3,0.2 -6.5,0.6 -9.8,0.6 -24.6,0 -47.6,-6 -68.5,-16 h -8.3 C 179.6,288 128,339.6 128,403.2 V 432 c 0,26.5 21.5,48 48,48 h 255.4 c -3.7,-6 -6.2,-12.8 -6.2,-20.3 z M 173.1,274.6 C 161.5,263.1 145.6,256 128,256 H 64 C 28.7,256 0,284.7 0,320 v 32 c 0,17.7 14.3,32 32,32 h 65.9 c 6.3,-47.4 34.9,-87.3 75.2,-109.4 z"
       style="fill:#0000ff"/>
  </g>
</svg>
